<svg xmlns="http://www.w3.org/2000/svg" width="354" height="100" viewBox="0 0 354 100">
    <g fill="#FFF" fill-rule="evenodd">
        <path d="M2.276 2.264h8.274l7.728 21.126h.126l7.644-21.126h8.316V32h-5.25V8.102h-.084L20 32h-3.696L7.4 8.102h-.084V32h-5.04V2.264zm38.472 9.576h5.04V32h-5.04V11.84zm-.714-6.846c0-.812.301-1.519.903-2.121.602-.602 1.365-.903 2.289-.903.924 0 1.701.287 2.331.861.63.574.945 1.295.945 2.163 0 .868-.315 1.589-.945 2.163-.63.574-1.407.861-2.331.861-.924 0-1.687-.301-2.289-.903-.602-.602-.903-1.309-.903-2.121zM51.92 11.84h4.788v3.234h.084c.448-1.008 1.225-1.897 2.331-2.667 1.106-.77 2.415-1.155 3.927-1.155 1.316 0 2.443.231 3.381.693.938.462 1.708 1.071 2.31 1.827a7.39 7.39 0 0 1 1.323 2.604c.28.98.42 1.988.42 3.024V32h-5.04V20.828c0-.588-.042-1.204-.126-1.848a4.988 4.988 0 0 0-.546-1.743 3.621 3.621 0 0 0-1.155-1.281c-.49-.336-1.141-.504-1.953-.504s-1.512.161-2.1.483a4.46 4.46 0 0 0-1.449 1.239 5.485 5.485 0 0 0-.861 1.743 6.954 6.954 0 0 0-.294 1.995V32h-5.04V11.84zm24.528 0h5.04V32h-5.04V11.84zm-.714-6.846c0-.812.301-1.519.903-2.121.602-.602 1.365-.903 2.289-.903.924 0 1.701.287 2.331.861.63.574.945 1.295.945 2.163 0 .868-.315 1.589-.945 2.163-.63.574-1.407.861-2.331.861-.924 0-1.687-.301-2.289-.903-.602-.602-.903-1.309-.903-2.121zm35.952 6.258c1.316 0 2.443.231 3.381.693.938.462 1.708 1.071 2.31 1.827a7.39 7.39 0 0 1 1.323 2.604c.28.98.42 1.988.42 3.024V32h-5.04V20.828c0-.588-.042-1.204-.126-1.848a4.988 4.988 0 0 0-.546-1.743 3.621 3.621 0 0 0-1.155-1.281c-.49-.336-1.141-.504-1.953-.504-.784 0-1.456.168-2.016.504-.56.336-1.022.77-1.386 1.302a5.574 5.574 0 0 0-.798 1.785 7.871 7.871 0 0 0-.252 1.953V32h-5.04V19.82c0-1.26-.301-2.303-.903-3.129-.602-.826-1.547-1.239-2.835-1.239-.756 0-1.414.161-1.974.483a4.157 4.157 0 0 0-1.365 1.239 5.685 5.685 0 0 0-.798 1.743 7.451 7.451 0 0 0-.273 1.995V32h-5.04V11.84h4.788v3.234h.084c.224-.504.525-.98.903-1.428a7.045 7.045 0 0 1 1.344-1.218 6.401 6.401 0 0 1 1.785-.861 7.437 7.437 0 0 1 2.226-.315c1.568 0 2.87.35 3.906 1.05a6.97 6.97 0 0 1 2.394 2.772c.672-1.232 1.568-2.177 2.688-2.835 1.12-.658 2.436-.987 3.948-.987zM125.084.248h5.04V32h-5.04V.248zm10.248 28.812c0-.896.329-1.666.987-2.31a3.271 3.271 0 0 1 2.373-.966c.896 0 1.68.308 2.352.924.672.616 1.008 1.372 1.008 2.268 0 .896-.329 1.666-.987 2.31a3.271 3.271 0 0 1-2.373.966c-.448 0-.875-.084-1.281-.252a3.653 3.653 0 0 1-1.071-.672 3.123 3.123 0 0 1-.735-1.008 2.955 2.955 0 0 1-.273-1.26z"/>
        <path d="M14.314 78.908a4.195 4.195 0 0 0-1.898-1.443c-.78-.303-1.543-.455-2.288-.455-.953 0-1.82.173-2.6.52a6.094 6.094 0 0 0-2.015 1.43 6.354 6.354 0 0 0-1.3 2.132 7.542 7.542 0 0 0-.455 2.652c0 1.005.147 1.924.442 2.756a6.215 6.215 0 0 0 1.261 2.145 5.665 5.665 0 0 0 1.963 1.391c.763.33 1.62.494 2.574.494.988 0 1.863-.195 2.626-.585.763-.39 1.378-.906 1.846-1.547l2.626 1.846a8.414 8.414 0 0 1-2.99 2.379c-1.179.563-2.557.845-4.134.845-1.439 0-2.76-.238-3.965-.715s-2.24-1.144-3.107-2.002a9.114 9.114 0 0 1-2.028-3.068c-.485-1.187-.728-2.5-.728-3.939 0-1.473.256-2.804.767-3.991.511-1.187 1.213-2.197 2.106-3.029A9.35 9.35 0 0 1 6.176 74.8c1.213-.45 2.53-.676 3.952-.676.59 0 1.205.056 1.846.169a9.391 9.391 0 0 1 1.846.52c.59.234 1.144.524 1.664.871s.962.763 1.326 1.248l-2.496 1.976zm4.654 1.612h2.99v2.08h.052a4.552 4.552 0 0 1 1.456-1.768c.624-.45 1.352-.676 2.184-.676.121 0 .251.004.39.013s.26.03.364.065v2.86a3.672 3.672 0 0 0-.962-.13c-.71 0-1.283.13-1.716.39a3.12 3.12 0 0 0-1.014.936 3.352 3.352 0 0 0-.494 1.118c-.087.381-.13.685-.13.91V93h-3.12V80.52zm18.252 4.992c0-.399-.056-.78-.169-1.144a2.618 2.618 0 0 0-.533-.962 2.602 2.602 0 0 0-.923-.663c-.373-.165-.81-.247-1.313-.247-.936 0-1.729.282-2.379.845-.65.563-1.01 1.287-1.079 2.171h6.396zm3.12 1.404v.416c0 .139-.009.277-.026.416h-9.49a3.09 3.09 0 0 0 1.144 2.197c.33.269.702.481 1.118.637.416.156.85.234 1.3.234.78 0 1.439-.143 1.976-.429.537-.286.98-.68 1.326-1.183l2.08 1.664c-1.23 1.664-3.016 2.496-5.356 2.496-.97 0-1.863-.152-2.678-.455a6.32 6.32 0 0 1-2.119-1.287 5.8 5.8 0 0 1-1.404-2.041c-.338-.806-.507-1.72-.507-2.743 0-1.005.169-1.92.507-2.743a6.245 6.245 0 0 1 1.391-2.106 6.222 6.222 0 0 1 2.093-1.352 7.004 7.004 0 0 1 2.613-.481c.867 0 1.668.143 2.405.429.737.286 1.374.71 1.911 1.274.537.563.958 1.265 1.261 2.106.303.84.455 1.824.455 2.951zm10.764 4.498h-.078c-.312.555-.815 1.01-1.508 1.365-.693.355-1.482.533-2.366.533a6.789 6.789 0 0 1-1.573-.195 4.682 4.682 0 0 1-1.508-.65 3.78 3.78 0 0 1-1.144-1.196c-.303-.494-.455-1.105-.455-1.833 0-.936.264-1.681.793-2.236.529-.555 1.209-.98 2.041-1.274.832-.295 1.755-.49 2.769-.585a31.802 31.802 0 0 1 2.977-.143v-.312c0-.78-.282-1.356-.845-1.729s-1.235-.559-2.015-.559c-.659 0-1.291.139-1.898.416-.607.277-1.11.615-1.508 1.014l-1.612-1.898a7.04 7.04 0 0 1 2.457-1.482 8.374 8.374 0 0 1 2.821-.494c1.11 0 2.024.156 2.743.468.72.312 1.287.72 1.703 1.222.416.503.706 1.066.871 1.69a7.31 7.31 0 0 1 .247 1.872V93h-2.912v-1.586zm-.052-4.108h-.702c-.503 0-1.031.022-1.586.065a6.886 6.886 0 0 0-1.534.286 3.275 3.275 0 0 0-1.17.624c-.312.269-.468.637-.468 1.105 0 .295.065.542.195.741.13.2.299.36.507.481.208.121.442.208.702.26.26.052.52.078.78.078 1.075 0 1.89-.286 2.444-.858.555-.572.832-1.352.832-2.34v-.442zm4.81-4.29V80.52h2.184v-3.614h3.068v3.614h3.12v2.496h-3.12v5.798c0 .555.1 1.014.299 1.378.2.364.646.546 1.339.546.208 0 .433-.022.676-.065.243-.043.46-.108.65-.195l.104 2.444a5.13 5.13 0 0 1-.988.247c-.381.06-.745.091-1.092.091-.832 0-1.508-.117-2.028-.351-.52-.234-.932-.555-1.235-.962a3.561 3.561 0 0 1-.624-1.404 8.163 8.163 0 0 1-.169-1.703v-5.824h-2.184zm10.686-2.496h3.12V93h-3.12V80.52zm-.442-4.238c0-.503.186-.94.559-1.313.373-.373.845-.559 1.417-.559.572 0 1.053.178 1.443.533.39.355.585.802.585 1.339 0 .537-.195.984-.585 1.339-.39.355-.871.533-1.443.533-.572 0-1.044-.186-1.417-.559-.373-.373-.559-.81-.559-1.313zm5.486 4.238h3.406l3.276 9.1h.052l3.302-9.1h3.302L79.964 93h-3.328l-5.044-12.48zm23.998 4.992c0-.399-.056-.78-.169-1.144a2.618 2.618 0 0 0-.533-.962 2.602 2.602 0 0 0-.923-.663c-.373-.165-.81-.247-1.313-.247-.936 0-1.729.282-2.379.845-.65.563-1.01 1.287-1.079 2.171h6.396zm3.12 1.404v.416c0 .139-.009.277-.026.416h-9.49a3.09 3.09 0 0 0 1.144 2.197c.33.269.702.481 1.118.637.416.156.85.234 1.3.234.78 0 1.439-.143 1.976-.429.537-.286.98-.68 1.326-1.183l2.08 1.664c-1.23 1.664-3.016 2.496-5.356 2.496-.97 0-1.863-.152-2.678-.455a6.32 6.32 0 0 1-2.119-1.287 5.8 5.8 0 0 1-1.404-2.041c-.338-.806-.507-1.72-.507-2.743 0-1.005.169-1.92.507-2.743a6.245 6.245 0 0 1 1.391-2.106 6.222 6.222 0 0 1 2.093-1.352 7.004 7.004 0 0 1 2.613-.481c.867 0 1.668.143 2.405.429.737.286 1.374.71 1.911 1.274.537.563.958 1.265 1.261 2.106.303.84.455 1.824.455 2.951zm9.672-12.324h6.526c1.196 0 2.4.156 3.614.468a9.358 9.358 0 0 1 3.276 1.547c.97.72 1.76 1.664 2.366 2.834.607 1.17.91 2.622.91 4.355 0 1.612-.303 2.999-.91 4.16s-1.395 2.115-2.366 2.86a9.89 9.89 0 0 1-3.276 1.651 12.809 12.809 0 0 1-3.614.533h-6.526V74.592zm6.006 15.548c.85 0 1.699-.1 2.548-.299.85-.2 1.616-.537 2.301-1.014s1.244-1.122 1.677-1.937c.433-.815.65-1.846.65-3.094 0-1.317-.217-2.392-.65-3.224-.433-.832-.992-1.482-1.677-1.95a6.244 6.244 0 0 0-2.301-.962c-.85-.173-1.699-.26-2.548-.26h-2.73v12.74h2.73zm22.49-4.628c0-.399-.056-.78-.169-1.144a2.618 2.618 0 0 0-.533-.962 2.602 2.602 0 0 0-.923-.663c-.373-.165-.81-.247-1.313-.247-.936 0-1.729.282-2.379.845-.65.563-1.01 1.287-1.079 2.171h6.396zm3.12 1.404v.416c0 .139-.009.277-.026.416h-9.49a3.09 3.09 0 0 0 1.144 2.197c.33.269.702.481 1.118.637.416.156.85.234 1.3.234.78 0 1.439-.143 1.976-.429.537-.286.98-.68 1.326-1.183l2.08 1.664c-1.23 1.664-3.016 2.496-5.356 2.496-.97 0-1.863-.152-2.678-.455a6.32 6.32 0 0 1-2.119-1.287 5.8 5.8 0 0 1-1.404-2.041c-.338-.806-.507-1.72-.507-2.743 0-1.005.169-1.92.507-2.743a6.245 6.245 0 0 1 1.391-2.106 6.222 6.222 0 0 1 2.093-1.352 7.004 7.004 0 0 1 2.613-.481c.867 0 1.668.143 2.405.429.737.286 1.374.71 1.911 1.274.537.563.958 1.265 1.261 2.106.303.84.455 1.824.455 2.951zm1.144-6.396h3.406l3.276 9.1h.052l3.302-9.1h3.302L149.514 93h-3.328l-5.044-12.48zm23.998 4.992c0-.399-.056-.78-.169-1.144a2.618 2.618 0 0 0-.533-.962 2.602 2.602 0 0 0-.923-.663c-.373-.165-.81-.247-1.313-.247-.936 0-1.729.282-2.379.845-.65.563-1.01 1.287-1.079 2.171h6.396zm3.12 1.404v.416c0 .139-.009.277-.026.416h-9.49a3.09 3.09 0 0 0 1.144 2.197c.33.269.702.481 1.118.637.416.156.85.234 1.3.234.78 0 1.439-.143 1.976-.429.537-.286.98-.68 1.326-1.183l2.08 1.664c-1.23 1.664-3.016 2.496-5.356 2.496-.97 0-1.863-.152-2.678-.455a6.32 6.32 0 0 1-2.119-1.287 5.8 5.8 0 0 1-1.404-2.041c-.338-.806-.507-1.72-.507-2.743 0-1.005.169-1.92.507-2.743a6.245 6.245 0 0 1 1.391-2.106 6.222 6.222 0 0 1 2.093-1.352 7.004 7.004 0 0 1 2.613-.481c.867 0 1.668.143 2.405.429.737.286 1.374.71 1.911 1.274.537.563.958 1.265 1.261 2.106.303.84.455 1.824.455 2.951zm3.068-13.572h3.12V93h-3.12V73.344zm6.188 13.364c0-.988.178-1.885.533-2.691a6.292 6.292 0 0 1 1.443-2.067 6.36 6.36 0 0 1 2.158-1.326 7.49 7.49 0 0 1 2.652-.468c.936 0 1.82.156 2.652.468a6.36 6.36 0 0 1 2.158 1.326 6.292 6.292 0 0 1 1.443 2.067c.355.806.533 1.703.533 2.691 0 .988-.178 1.89-.533 2.704a6.403 6.403 0 0 1-1.443 2.093 6.59 6.59 0 0 1-2.158 1.365 7.14 7.14 0 0 1-2.652.494 7.14 7.14 0 0 1-2.652-.494 6.59 6.59 0 0 1-2.158-1.365 6.403 6.403 0 0 1-1.443-2.093c-.355-.815-.533-1.716-.533-2.704zm3.172 0c0 .485.074.97.221 1.456.147.485.368.919.663 1.3a3.47 3.47 0 0 0 1.118.936c.45.243.988.364 1.612.364.624 0 1.161-.121 1.612-.364a3.47 3.47 0 0 0 1.118-.936 4.01 4.01 0 0 0 .663-1.3 4.861 4.861 0 0 0 0-2.899 4.033 4.033 0 0 0-.663-1.287 3.33 3.33 0 0 0-1.118-.923c-.45-.234-.988-.351-1.612-.351-.624 0-1.161.117-1.612.351a3.33 3.33 0 0 0-1.118.923c-.295.381-.516.81-.663 1.287a4.861 4.861 0 0 0-.221 1.443zm16.406-6.188v1.742h.078c.156-.243.36-.49.611-.741s.559-.477.923-.676a5.68 5.68 0 0 1 2.782-.689c.884 0 1.699.169 2.444.507a5.832 5.832 0 0 1 1.924 1.391c.537.59.953 1.283 1.248 2.08.295.797.442 1.655.442 2.574a7.68 7.68 0 0 1-.429 2.587 6.345 6.345 0 0 1-1.222 2.106 5.88 5.88 0 0 1-1.924 1.43c-.754.355-1.608.533-2.561.533a5.412 5.412 0 0 1-2.431-.546c-.737-.364-1.304-.858-1.703-1.482h-.052v7.904h-3.12V80.52h2.99zm7.28 6.188c0-.485-.074-.966-.221-1.443a4.033 4.033 0 0 0-.663-1.287 3.33 3.33 0 0 0-1.118-.923c-.45-.234-.98-.351-1.586-.351-.572 0-1.083.121-1.534.364a3.93 3.93 0 0 0-1.885 2.236c-.165.485-.247.97-.247 1.456 0 .485.082.966.247 1.443.165.477.407.906.728 1.287.32.381.706.689 1.157.923.45.234.962.351 1.534.351.607 0 1.135-.121 1.586-.364a3.47 3.47 0 0 0 1.118-.936 4.01 4.01 0 0 0 .663-1.3 4.99 4.99 0 0 0 .221-1.456zm21.086-6.552c.815 0 1.512.143 2.093.429.58.286 1.057.663 1.43 1.131.373.468.646 1.005.819 1.612.173.607.26 1.23.26 1.872V93h-3.12v-6.916c0-.364-.026-.745-.078-1.144a3.088 3.088 0 0 0-.338-1.079 2.242 2.242 0 0 0-.715-.793c-.303-.208-.706-.312-1.209-.312-.485 0-.901.104-1.248.312a2.725 2.725 0 0 0-.858.806 3.45 3.45 0 0 0-.494 1.105c-.104.407-.156.81-.156 1.209V93h-3.12v-7.54c0-.78-.186-1.426-.559-1.937-.373-.511-.958-.767-1.755-.767-.468 0-.875.1-1.222.299-.347.2-.628.455-.845.767a3.52 3.52 0 0 0-.494 1.079 4.613 4.613 0 0 0-.169 1.235V93h-3.12V80.52h2.964v2.002h.052c.139-.312.325-.607.559-.884.234-.277.511-.529.832-.754.32-.225.689-.403 1.105-.533.416-.13.875-.195 1.378-.195.97 0 1.777.217 2.418.65a4.314 4.314 0 0 1 1.482 1.716c.416-.763.97-1.348 1.664-1.755.693-.407 1.508-.611 2.444-.611zm17.03 5.356c0-.399-.056-.78-.169-1.144a2.618 2.618 0 0 0-.533-.962 2.602 2.602 0 0 0-.923-.663c-.373-.165-.81-.247-1.313-.247-.936 0-1.729.282-2.379.845-.65.563-1.01 1.287-1.079 2.171h6.396zm3.12 1.404v.416c0 .139-.009.277-.026.416h-9.49a3.09 3.09 0 0 0 1.144 2.197c.33.269.702.481 1.118.637.416.156.85.234 1.3.234.78 0 1.439-.143 1.976-.429.537-.286.98-.68 1.326-1.183l2.08 1.664c-1.23 1.664-3.016 2.496-5.356 2.496-.97 0-1.863-.152-2.678-.455a6.32 6.32 0 0 1-2.119-1.287 5.8 5.8 0 0 1-1.404-2.041c-.338-.806-.507-1.72-.507-2.743 0-1.005.169-1.92.507-2.743a6.245 6.245 0 0 1 1.391-2.106 6.222 6.222 0 0 1 2.093-1.352 7.004 7.004 0 0 1 2.613-.481c.867 0 1.668.143 2.405.429.737.286 1.374.71 1.911 1.274.537.563.958 1.265 1.261 2.106.303.84.455 1.824.455 2.951zm3.016-6.396h2.964v2.002h.052c.277-.624.758-1.174 1.443-1.651.685-.477 1.495-.715 2.431-.715.815 0 1.512.143 2.093.429.58.286 1.057.663 1.43 1.131.373.468.646 1.005.819 1.612.173.607.26 1.23.26 1.872V93h-3.12v-6.916c0-.364-.026-.745-.078-1.144a3.088 3.088 0 0 0-.338-1.079 2.242 2.242 0 0 0-.715-.793c-.303-.208-.706-.312-1.209-.312-.503 0-.936.1-1.3.299a2.76 2.76 0 0 0-.897.767 3.396 3.396 0 0 0-.533 1.079 4.305 4.305 0 0 0-.182 1.235V93h-3.12V80.52zm13.338 2.496V80.52h2.184v-3.614h3.068v3.614h3.12v2.496h-3.12v5.798c0 .555.1 1.014.299 1.378.2.364.646.546 1.339.546.208 0 .433-.022.676-.065.243-.043.46-.108.65-.195l.104 2.444a5.13 5.13 0 0 1-.988.247c-.381.06-.745.091-1.092.091-.832 0-1.508-.117-2.028-.351-.52-.234-.932-.555-1.235-.962a3.561 3.561 0 0 1-.624-1.404 8.163 8.163 0 0 1-.169-1.703v-5.824h-2.184zm33.41 9.022c-.936.45-1.963.802-3.081 1.053-1.118.251-2.405.377-3.861.377-1.49 0-2.851-.238-4.082-.715-1.23-.477-2.288-1.144-3.172-2.002a9.083 9.083 0 0 1-2.067-3.068c-.494-1.187-.741-2.5-.741-3.939 0-1.473.256-2.804.767-3.991.511-1.187 1.213-2.197 2.106-3.029a9.35 9.35 0 0 1 3.159-1.924c1.213-.45 2.53-.676 3.952-.676 1.473 0 2.821.212 4.043.637 1.222.425 2.206.984 2.951 1.677l-2.262 2.444c-.468-.52-1.122-.962-1.963-1.326a6.829 6.829 0 0 0-2.743-.546c-.97 0-1.85.173-2.639.52a5.921 5.921 0 0 0-2.015 1.43 6.466 6.466 0 0 0-1.287 2.132 7.542 7.542 0 0 0-.455 2.652c0 .988.152 1.894.455 2.717a6.328 6.328 0 0 0 1.3 2.145 5.849 5.849 0 0 0 2.054 1.417c.806.338 1.72.507 2.743.507 1.404 0 2.626-.217 3.666-.65V85.2h-3.874v-2.704h7.046v9.542zm3.822-11.518h2.99v2.08h.052a4.552 4.552 0 0 1 1.456-1.768c.624-.45 1.352-.676 2.184-.676.121 0 .251.004.39.013s.26.03.364.065v2.86a3.672 3.672 0 0 0-.962-.13c-.71 0-1.283.13-1.716.39a3.12 3.12 0 0 0-1.014.936 3.352 3.352 0 0 0-.494 1.118c-.087.381-.13.685-.13.91V93h-3.12V80.52zm8.736 6.188c0-.988.178-1.885.533-2.691a6.292 6.292 0 0 1 1.443-2.067 6.36 6.36 0 0 1 2.158-1.326 7.49 7.49 0 0 1 2.652-.468c.936 0 1.82.156 2.652.468a6.36 6.36 0 0 1 2.158 1.326 6.292 6.292 0 0 1 1.443 2.067c.355.806.533 1.703.533 2.691 0 .988-.178 1.89-.533 2.704a6.403 6.403 0 0 1-1.443 2.093 6.59 6.59 0 0 1-2.158 1.365 7.14 7.14 0 0 1-2.652.494 7.14 7.14 0 0 1-2.652-.494 6.59 6.59 0 0 1-2.158-1.365 6.403 6.403 0 0 1-1.443-2.093c-.355-.815-.533-1.716-.533-2.704zm3.172 0c0 .485.074.97.221 1.456.147.485.368.919.663 1.3a3.47 3.47 0 0 0 1.118.936c.45.243.988.364 1.612.364.624 0 1.161-.121 1.612-.364a3.47 3.47 0 0 0 1.118-.936 4.01 4.01 0 0 0 .663-1.3 4.861 4.861 0 0 0 0-2.899 4.033 4.033 0 0 0-.663-1.287 3.33 3.33 0 0 0-1.118-.923c-.45-.234-.988-.351-1.612-.351-.624 0-1.161.117-1.612.351a3.33 3.33 0 0 0-1.118.923c-.295.381-.516.81-.663 1.287a4.861 4.861 0 0 0-.221 1.443zM335.908 93h-2.964v-2.002h-.052c-.277.624-.758 1.174-1.443 1.651-.685.477-1.495.715-2.431.715-.815 0-1.512-.143-2.093-.429a4.126 4.126 0 0 1-1.43-1.131 4.575 4.575 0 0 1-.819-1.612 6.78 6.78 0 0 1-.26-1.872v-7.8h3.12v6.916c0 .364.026.745.078 1.144.052.399.165.758.338 1.079.173.32.412.585.715.793.303.208.706.312 1.209.312a2.687 2.687 0 0 0 2.197-1.066c.234-.312.412-.672.533-1.079.121-.407.182-.819.182-1.235V80.52h3.12V93zm6.734-12.48v1.742h.078c.156-.243.36-.49.611-.741s.559-.477.923-.676a5.68 5.68 0 0 1 2.782-.689c.884 0 1.699.169 2.444.507a5.832 5.832 0 0 1 1.924 1.391c.537.59.953 1.283 1.248 2.08.295.797.442 1.655.442 2.574a7.68 7.68 0 0 1-.429 2.587 6.345 6.345 0 0 1-1.222 2.106 5.88 5.88 0 0 1-1.924 1.43c-.754.355-1.608.533-2.561.533a5.412 5.412 0 0 1-2.431-.546c-.737-.364-1.304-.858-1.703-1.482h-.052v7.904h-3.12V80.52h2.99zm7.28 6.188c0-.485-.074-.966-.221-1.443a4.033 4.033 0 0 0-.663-1.287 3.33 3.33 0 0 0-1.118-.923c-.45-.234-.98-.351-1.586-.351-.572 0-1.083.121-1.534.364a3.93 3.93 0 0 0-1.885 2.236c-.165.485-.247.97-.247 1.456 0 .485.082.966.247 1.443.165.477.407.906.728 1.287.32.381.706.689 1.157.923.45.234.962.351 1.534.351.607 0 1.135-.121 1.586-.364a3.47 3.47 0 0 0 1.118-.936 4.01 4.01 0 0 0 .663-1.3 4.99 4.99 0 0 0 .221-1.456z" opacity=".4"/>
    </g>
</svg>
