<svg xmlns="http://www.w3.org/2000/svg" width="141" height="33" viewBox="0 0 141 33">
    <path fill="#000" fill-rule="evenodd" d="M.276 2.264H8.55l7.728 21.126h.126l7.644-21.126h8.316V32h-5.25V8.102h-.084L18 32h-3.696L5.4 8.102h-.084V32H.276V2.264zm38.472 9.576h5.04V32h-5.04V11.84zm-.714-6.846c0-.812.301-1.519.903-2.121.602-.602 1.365-.903 2.289-.903.924 0 1.701.287 2.331.861.63.574.945 1.295.945 2.163 0 .868-.315 1.589-.945 2.163-.63.574-1.407.861-2.331.861-.924 0-1.687-.301-2.289-.903-.602-.602-.903-1.309-.903-2.121zM49.92 11.84h4.788v3.234h.084c.448-1.008 1.225-1.897 2.331-2.667 1.106-.77 2.415-1.155 3.927-1.155 1.316 0 2.443.231 3.381.693.938.462 1.708 1.071 2.31 1.827a7.39 7.39 0 0 1 1.323 2.604c.28.98.42 1.988.42 3.024V32h-5.04V20.828c0-.588-.042-1.204-.126-1.848a4.988 4.988 0 0 0-.546-1.743 3.621 3.621 0 0 0-1.155-1.281c-.49-.336-1.141-.504-1.953-.504s-1.512.161-2.1.483a4.46 4.46 0 0 0-1.449 1.239 5.485 5.485 0 0 0-.861 1.743 6.954 6.954 0 0 0-.294 1.995V32h-5.04V11.84zm24.528 0h5.04V32h-5.04V11.84zm-.714-6.846c0-.812.301-1.519.903-2.121.602-.602 1.365-.903 2.289-.903.924 0 1.701.287 2.331.861.63.574.945 1.295.945 2.163 0 .868-.315 1.589-.945 2.163-.63.574-1.407.861-2.331.861-.924 0-1.687-.301-2.289-.903-.602-.602-.903-1.309-.903-2.121zm35.952 6.258c1.316 0 2.443.231 3.381.693.938.462 1.708 1.071 2.31 1.827a7.39 7.39 0 0 1 1.323 2.604c.28.98.42 1.988.42 3.024V32h-5.04V20.828c0-.588-.042-1.204-.126-1.848a4.988 4.988 0 0 0-.546-1.743 3.621 3.621 0 0 0-1.155-1.281c-.49-.336-1.141-.504-1.953-.504-.784 0-1.456.168-2.016.504-.56.336-1.022.77-1.386 1.302a5.574 5.574 0 0 0-.798 1.785 7.871 7.871 0 0 0-.252 1.953V32h-5.04V19.82c0-1.26-.301-2.303-.903-3.129-.602-.826-1.547-1.239-2.835-1.239-.756 0-1.414.161-1.974.483a4.157 4.157 0 0 0-1.365 1.239 5.685 5.685 0 0 0-.798 1.743 7.451 7.451 0 0 0-.273 1.995V32h-5.04V11.84h4.788v3.234h.084c.224-.504.525-.98.903-1.428a7.045 7.045 0 0 1 1.344-1.218 6.401 6.401 0 0 1 1.785-.861 7.437 7.437 0 0 1 2.226-.315c1.568 0 2.87.35 3.906 1.05a6.97 6.97 0 0 1 2.394 2.772c.672-1.232 1.568-2.177 2.688-2.835 1.12-.658 2.436-.987 3.948-.987zM123.084.248h5.04V32h-5.04V.248zm10.248 28.812c0-.896.329-1.666.987-2.31a3.271 3.271 0 0 1 2.373-.966c.896 0 1.68.308 2.352.924.672.616 1.008 1.372 1.008 2.268 0 .896-.329 1.666-.987 2.31a3.271 3.271 0 0 1-2.373.966c-.448 0-.875-.084-1.281-.252a3.653 3.653 0 0 1-1.071-.672 3.123 3.123 0 0 1-.735-1.008 2.955 2.955 0 0 1-.273-1.26z"/>
</svg>
